<?xml version="1.0" encoding="UTF-8"?>
<svg id="Calque_2" data-name="Calque 2" xmlns="http://www.w3.org/2000/svg" viewBox="0 0 689.61 689.61">
  <defs>
    <style>
      .cls-1 {
        fill: #fff;
      }
    </style>
  </defs>
  <g id="Calque_1-2" data-name="Calque 1">
    <circle cx="344.81" cy="344.81" r="344.81"/>
    <path class="cls-1" d="M306.4,357.29c23.82,13.75,35.73,20.62,48.81,20.63,13.08,.01,25-6.84,48.85-20.55l152-87.38c6.86-3.94,11.09-11.26,11.09-19.17s-4.23-15.23-11.09-19.17l-152.06-87.41c-23.82-13.69-35.73-20.54-48.8-20.53-13.07,0-24.97,6.86-48.78,20.57l-130.72,75.28c-.97,.56-1.45,.84-1.9,1.1-44.65,26.14-72.24,73.86-72.61,125.6,0,.52,0,1.08,0,2.2s0,1.67,0,2.2c.37,51.68,27.89,99.36,72.47,125.52,.45,.26,.93,.54,1.9,1.1l81.88,47.28c47.71,27.55,71.57,41.32,97.77,41.33,26.2,0,50.06-13.75,97.79-41.27l86.44-49.83c23.9-13.78,35.85-20.67,42.41-32.02,6.56-11.36,6.56-25.15,6.56-52.74v-53.29c0-7.65-4.14-14.71-10.83-18.43-6.47-3.6-14.36-3.55-20.78,.14l-177.24,101.88c-11.89,6.84-17.84,10.25-24.36,10.26-6.53,0-12.47-3.41-24.37-10.24l-119.96-68.86c-6.01-3.45-9.01-5.17-11.43-5.49-5.5-.71-10.79,2.37-12.89,7.51-.92,2.25-.9,5.72-.86,12.65,.03,5.1,.04,7.65,.52,10,1.07,5.25,3.83,10.01,7.87,13.54,1.8,1.58,4.01,2.85,8.43,5.4l128.26,74.03c11.93,6.88,17.89,10.33,24.44,10.33,6.55,0,12.51-3.44,24.44-10.31l157.21-90.62c4.08-2.35,6.11-3.52,7.64-2.64,1.53,.88,1.53,3.23,1.53,7.94v24.17c0,6.9,0,10.35-1.64,13.18-1.64,2.84-4.63,4.56-10.6,8.01l-129.66,74.74c-23.87,13.76-35.81,20.64-48.91,20.63-13.1,0-25.03-6.9-48.89-20.68l-121.31-70.08c-.39-.22-.58-.33-.76-.44-25.44-14.86-41.13-42.06-41.28-71.52,0-.21,0-.43,0-.88v-22.19c0-16.26,8.66-31.3,22.73-39.45,12.43-7.21,27.77-7.22,40.22-.04l100.48,57.99Z"/>
  </g>
</svg>