<?xml version="1.0" encoding="UTF-8"?>
<svg id="Calque_2" data-name="Calque 2" xmlns="http://www.w3.org/2000/svg" viewBox="0 0 1342.23 1342.23">
  <defs>
    <style>
      .cls-1 {
        fill: #fff;
        fill-rule: evenodd;
      }
    </style>
  </defs>
  <g id="Layer_1" data-name="Layer 1">
    <circle cx="671.11" cy="671.11" r="671.12" transform="translate(-277.98 671.11) rotate(-45)"/>
    <path class="cls-1" d="M496.69,894.94c.75,.68,1.52,1.36,2.26,2.04,6.84,4.93,11.83,11.83,18.42,17.15,20.46,16.4,43.43,25.32,69.8,26.93,62.46,3.84,116.89-43.15,123.94-104.9,.34-3.01,.22-6.04,.22-9.04V269.21q0-12.53,12.51-12.53c28.26,0,56.53-.03,84.75,.03,2.63,0,5.42-.5,7.83,1.17,.18,.13,.34,.28,.53,.38,1.33,1.39,1.73,3.19,2.13,5.01,10.83,50.11,37.21,90.11,78.56,120.29,2.6,1.89,4.76,4.24,7.24,6.25,1.8,1.52,3.59,3.06,5.42,4.58,1.27-.09,2.2,.68,3.19,1.24,20.9,11.95,43.24,19.78,66.92,23.71,9.26,1.52,18.61,2.54,28.02,2.45,3.93-.03,4.05,.1,4.02,3.84v5.32l-.22,20.8,.22,.18v143.44l-2.85-.37c-27.24-3.59-53.77-10.25-79.39-20.24-24.52-9.59-47.61-21.79-69.31-36.71-1.33-.93-2.73-1.77-4.83-3.1v6.03c0,94.01,.1,188.02-.03,282-.03,50.08-13,96.64-39.74,139.11-32.29,51.29-77.08,87.38-134.04,108.04-34.55,12.6-70.33,17.43-107.07,14.7-61.97-4.58-115.58-28.26-161.24-70.26-1.2-1.11-2.26-2.42-3.37-3.66-2.2-1.92-4.33-3.84-6.5-5.75-16.37-13.53-27.76-31.05-38.38-48.97-16.37-27.62-26.99-57.46-32.2-89.15-2.94-18.14-4.46-36.4-3.47-54.73,3.25-59.09,23.12-111.84,61.23-157.44,31.98-38.23,71.91-64.94,118.96-81.01,40.77-13.96,75.62-14.51,116.76-9.97,2.04,.25,2.57,1.18,2.54,2.94-.06,1.03,0,2.01,0,3.04,0,44.54,0,89.09-.03,133.63,0,1.64,.43,3.38-.62,5.14-5.88-1.11-11.64-2.88-17.61-3.72-34.39-4.83-65.44,3.22-92.71,24.7-23.96,18.89-38.69,43.68-43.65,73.71-5.26,31.88,1.33,61.44,19.66,88.22,.78,1.08,1.43,2.23,2.13,3.38Z"/>
  </g>
</svg>